# xmcd CD database file
#
# Track frame offsets:
#	150
#	19565
#	42790
#	57670
#	79137
#	103815
#
# Disc length: 1623 seconds
#
# Revision: 0
# Processed by: cddbd v1.5.1PL2 Copyright (c) Steve Scherf et al.
# Submitted via: CDex 1.51
#
DISCID=46065506
DTITLE=HARCO - WISH LIST
DYEAR=2006
DGENRE=Pop
TTITLE0=君の髪にふれたい
TTITLE1=ジャングルクルーズ
TTITLE2=サプリメント
TTITLE3=椿
TTITLE4=雲のリフト
TTITLE5=愛を誓おう
EXTD=YEAR: 2006
EXTT0=
EXTT1=
EXTT2=
EXTT3=
EXTT4=
EXTT5=
PLAYORDER=
